<svg width="76" height="19" viewBox="0 0 76 19" fill="none" xmlns="http://www.w3.org/2000/svg">
<path fill-rule="evenodd" clip-rule="evenodd" d="M23.6171 9.46749C23.6171 13.0085 26.3942 15.7541 29.9682 15.7541C30.9784 15.7541 31.844 15.5553 32.9109 15.0522V12.2861C31.9728 13.2263 31.1416 13.6056 30.0775 13.6056C27.7136 13.6056 26.0358 11.8896 26.0358 9.4498C26.0358 7.13707 27.7666 5.31257 29.9682 5.31257C31.0877 5.31257 31.9351 5.71238 32.9109 6.66791V3.90325C31.8807 3.3801 31.0337 3.16321 30.0236 3.16321C26.4677 3.16321 23.6171 5.96464 23.6171 9.46749ZM17.5938 6.54164C17.5938 7.19278 18.0071 7.53673 19.4157 8.05848C22.0855 9.03635 22.8767 9.90252 22.8767 11.8168C22.8767 14.1487 21.1655 15.7726 18.7267 15.7726C16.9407 15.7726 15.6418 15.0684 14.5605 13.4789L16.0769 12.017C16.6171 13.0633 17.519 13.6241 18.6384 13.6241C19.6858 13.6241 20.4607 12.9008 20.4607 11.9248C20.4607 11.4189 20.226 10.9847 19.7569 10.6779C19.5212 10.5327 19.0535 10.3168 18.1345 9.99189C15.93 9.19786 15.1741 8.34798 15.1741 6.68825C15.1741 4.71668 16.7979 3.2366 18.9271 3.2366C20.2464 3.2366 21.4537 3.68807 22.463 4.57193L21.2347 6.18186C20.6234 5.49581 20.0451 5.20631 19.3422 5.20631C18.3307 5.20631 17.5938 5.78298 17.5938 6.54164ZM11.3294 15.4829H13.6766V3.43563H11.3294V15.4829ZM6.53189 12.4855C5.79459 13.1525 4.83648 13.4434 3.32004 13.4434H2.69013V5.4766H3.32004C4.83648 5.4766 5.75694 5.74841 6.53189 6.45121C7.34357 7.17449 7.83169 8.29618 7.83169 9.44999C7.83169 10.6066 7.34357 11.7623 6.53189 12.4855ZM3.79003 3.43567H0.344818V15.4825H3.7719C5.59423 15.4825 6.90983 15.0524 8.06506 14.0917C9.43785 12.9547 10.2495 11.2405 10.2495 9.46768C10.2495 5.91224 7.59646 3.43567 3.79003 3.43567ZM48.3121 3.43563L51.5207 11.5276L54.7711 3.43563H57.3154L52.1171 15.7919H50.8541L45.7478 3.43563H48.3121ZM58.3767 15.4826H65.0329V13.4431H60.722V10.1911H64.8743V8.15068H60.722V5.47678H65.0329V3.43539H58.3767V15.4826ZM68.9317 8.98181H69.6174C71.1166 8.98181 71.9111 8.32974 71.9111 7.11869C71.9111 5.94626 71.1166 5.33329 69.6545 5.33329H68.9317V8.98181ZM70.0678 3.43526C72.7744 3.43526 74.3261 4.7366 74.3261 6.99209C74.3261 8.83659 73.3527 10.0476 71.5847 10.4074L75.373 15.4825H72.4866L69.238 10.6429H68.9317V15.4825H66.5873V3.43526H70.0678Z" fill="#1D1D1B"/>
<path fill-rule="evenodd" clip-rule="evenodd" d="M45.4709 12.9539C47.3759 9.97152 46.5059 6.00954 43.5275 4.1025C40.549 2.19546 36.591 3.06606 34.686 6.0484C32.7814 9.02996 33.6518 12.9932 36.6302 14.9003C39.6086 16.8073 43.5664 15.9354 45.4709 12.9539Z" fill="url(#paint0_linear_1131_16)"/>
<defs>
<linearGradient id="paint0_linear_1131_16" x1="48.9195" y1="7.55498" x2="38.1271" y2="0.661171" gradientUnits="userSpaceOnUse">
<stop stop-color="#F6A000"/>
<stop offset="0.623918" stop-color="#E47E02"/>
<stop offset="1" stop-color="#D36002"/>
</linearGradient>
</defs>
</svg>
