<svg width="58" height="23" viewBox="0 0 58 23" fill="none" xmlns="http://www.w3.org/2000/svg">
<path fill-rule="evenodd" clip-rule="evenodd" d="M27.4322 17.9714V11.4303V11.429H30.9665C32.4236 11.4299 33.6482 10.9715 34.6403 10.0538C35.6429 9.18283 36.2035 7.93058 36.175 6.62533C36.1948 5.32733 35.6353 4.08436 34.6403 3.21622C33.6569 2.29351 32.3343 1.79006 30.9665 1.81778H25.293V17.9714H27.4322ZM27.4322 9.44542V3.80653V3.80524H31.0196C31.8192 3.78344 32.59 4.09556 33.1362 4.66235C33.6859 5.1807 33.996 5.89268 33.996 6.63629C33.996 7.37989 33.6859 8.09187 33.1362 8.61022C32.5833 9.16509 31.8149 9.46829 31.0196 9.44542H27.4322Z" fill="#5F6368"/>
<path fill-rule="evenodd" clip-rule="evenodd" d="M44.8485 7.78791C43.9335 6.96818 42.6854 6.55831 41.1043 6.55831C39.0732 6.55831 37.5394 7.28009 36.503 8.72364L38.3871 9.87462C39.0833 8.89679 40.0289 8.40787 41.2239 8.40787C41.9857 8.39922 42.723 8.66935 43.2887 9.16444C43.8527 9.61679 44.1771 10.2912 44.1722 11.0011V11.4754C43.3502 11.0243 42.3041 10.7988 41.0339 10.7988C39.5457 10.8005 38.3561 11.139 37.465 11.8144C36.5739 12.4898 36.1283 13.3993 36.1283 14.543C36.1089 15.5844 36.5746 16.5787 37.3959 17.2496C38.241 17.9714 39.2911 18.3323 40.5462 18.3323C42.0167 18.3323 43.1948 17.7008 44.0806 16.4376H44.1736V17.9714H46.2198V11.1596C46.2206 9.73156 45.7636 8.60764 44.8485 7.78791ZM39.0462 15.9414C38.5981 15.6281 38.3338 15.1239 38.3367 14.5881C38.3367 13.9862 38.6277 13.4848 39.2137 13.0724C39.7939 12.6659 40.5184 12.4627 41.3874 12.4627C42.5806 12.4627 43.5107 12.7205 44.1777 13.236C44.1777 14.1073 43.8233 14.8665 43.1147 15.5135C42.4764 16.1328 41.6111 16.4813 40.7084 16.4828C40.1066 16.4937 39.5194 16.3024 39.0462 15.9414Z" fill="#5F6368"/>
<path fill-rule="evenodd" clip-rule="evenodd" d="M57.9656 6.9192L50.8225 22.8434H48.6142L51.265 17.2716L46.568 6.9192H48.8932L52.2881 14.8588H52.3346L55.6364 6.9192L57.9656 6.9192Z" fill="#5F6368"/>
<path fill-rule="evenodd" clip-rule="evenodd" d="M18.7876 10.0203C18.7885 9.38787 18.7333 8.75658 18.6229 8.13333H9.60106V11.7074H14.7683C14.5547 12.8609 13.8645 13.8797 12.8577 14.5275V16.8475H15.9416C17.7473 15.2325 18.7876 12.8442 18.7876 10.0203Z" fill="#4285F4"/>
<path fill-rule="evenodd" clip-rule="evenodd" d="M9.60104 19.0889C12.1827 19.0889 14.3564 18.2666 15.9416 16.8488L12.8577 14.5288C11.9993 15.0933 10.8939 15.4156 9.60104 15.4156C7.10576 15.4156 4.98782 13.7838 4.23046 11.585H1.05356V13.9759C2.67743 17.1104 5.98464 19.0887 9.60104 19.0889Z" fill="#34A853"/>
<path fill-rule="evenodd" clip-rule="evenodd" d="M4.23058 11.585C3.8302 10.4328 3.8302 9.18501 4.23058 8.0328V5.64191H1.05368C-0.304554 8.26368 -0.304554 11.3541 1.05368 13.9759L4.23058 11.585Z" fill="#FBBC04"/>
<path fill-rule="evenodd" clip-rule="evenodd" d="M9.60104 4.20222C10.9653 4.1806 12.2836 4.68062 13.2709 5.59422L16.0014 2.94555C14.27 1.36805 11.9762 0.501973 9.60104 0.528883C5.98464 0.529043 2.67743 2.50738 1.05356 5.64191L4.23046 8.0328C4.98782 5.83395 7.10576 4.20222 9.60104 4.20222Z" fill="#EA4335"/>
</svg>
