<svg width="501" height="356" viewBox="0 0 501 356" fill="none" xmlns="http://www.w3.org/2000/svg">
<path fill-rule="evenodd" clip-rule="evenodd" d="M293.298 1.76901C276.101 8.45701 302.926 27.1378 343.278 36.5935L364.141 41.4368C299.488 67.728 238.501 91.2508 194.252 145.448C182.559 159.746 179.12 162.514 169.72 165.051C105.295 182.348 30.5534 251.766 6.4801 316.341C-2.46143 340.096 -0.856774 350.703 11.9823 354.163C25.7385 357.853 28.4899 355.778 40.8707 331.101C69.9879 272.521 138.769 197.568 163.3 197.568C163.759 197.568 162.613 201.491 161.008 206.333C137.164 274.136 202.735 321.646 273.808 287.973C334.336 259.146 312.326 171.047 242.399 161.591C211.906 157.44 287.106 102.552 367.581 70.265C385.463 63.1155 401.053 57.3498 402.201 57.3498C403.576 57.3498 393.028 69.1108 378.813 83.179C335.023 127.228 324.478 146.601 339.838 153.75C353.136 159.747 367.808 152.828 384.088 132.303C414.121 94.4803 442.323 69.1108 480.153 45.126C525.088 16.759 486.571 9.14926 461.123 18.1435C424.898 31.289 346.488 25.0623 320.351 6.61226C313.243 1.30801 300.176 -0.998487 293.298 1.76901ZM249.736 186.038C285.501 209.793 269.223 267.678 223.598 278.056C194.939 284.513 188.979 228.473 213.969 185.806C219.701 176.121 234.833 176.121 249.736 186.038Z" fill="#878787"/>
</svg>
