<svg width="501" height="480" viewBox="0 0 501 480" fill="none" xmlns="http://www.w3.org/2000/svg">
<path fill-rule="evenodd" clip-rule="evenodd" d="M258.639 421.284C273.326 410.115 242.391 399.552 200.996 401.585L179.606 402.68C234.508 359.586 286.648 320.164 314.245 255.87C321.543 238.903 324.087 235.294 332.423 230.265C389.585 195.879 442.297 108.549 447.638 39.8404C449.685 14.541 445.219 4.78674 431.924 4.99971C417.683 5.24438 415.61 7.9974 410.511 35.1315C398.669 99.468 353.212 190.476 329.631 197.237C329.19 197.364 329.211 193.277 329.419 188.18C333.65 116.432 257.523 88.8362 198.485 140.795C148.248 185.189 193.689 263.808 263.513 253.623C293.969 249.209 236.812 322.698 168.354 375.916C153.134 387.718 139.738 397.558 138.635 397.874C137.313 398.253 144.21 384.04 153.997 366.599C183.949 312.186 188.745 290.657 172.01 288.018C157.575 285.92 145.377 296.614 135.386 320.832C116.942 365.467 96.8246 397.628 67.0712 431.111C31.6959 470.765 70.8188 467.463 92.8014 451.803C124 429.181 201.089 413.554 231.299 424.085C239.593 427.225 252.79 425.84 258.639 421.284ZM249.722 232.146C208.795 219.169 208.486 159.04 249.484 136.488C275.252 122.381 296.428 174.608 284.167 222.511C281.327 233.4 266.781 237.571 249.722 232.146Z" fill="#878787"/>
</svg>
