<svg width="408" height="216" viewBox="0 0 408 216" fill="none" xmlns="http://www.w3.org/2000/svg">
<g filter="url(#filter0_dd_1220_3496)">
<rect x="40.5" y="20.5" width="327" height="135" rx="24.5" stroke="#D6DCE5"/>
<path d="M211.309 62.4871L199.549 65.0108V55.4769L211.309 53V62.4871Z" fill="#635BFF"/>
<path d="M163.522 58.4207L152.091 60.8506L152.044 98.2807C152.044 105.197 157.244 110.29 164.178 110.29C168.019 110.29 170.83 109.589 172.376 108.748V99.262C170.877 99.8695 163.475 102.019 163.475 95.1031V78.5142H172.376V68.5609H163.475L163.522 58.4207Z" fill="#635BFF"/>
<path fill-rule="evenodd" clip-rule="evenodd" d="M288.656 89.168C288.656 77.2053 282.847 67.766 271.744 67.766C260.594 67.766 253.847 77.2053 253.847 89.0745C253.847 103.14 261.812 110.243 273.243 110.243C278.818 110.243 283.034 108.981 286.22 107.205V97.8596C283.034 99.4484 279.38 100.43 274.742 100.43C270.198 100.43 266.169 98.8409 265.653 93.3269H288.563C288.563 93.0693 288.579 92.4842 288.599 91.8101L288.599 91.8086L288.599 91.8071L288.599 91.8058C288.625 90.8908 288.656 89.813 288.656 89.168ZM265.512 84.7292C265.512 79.4482 268.745 77.2517 271.696 77.2517C274.554 77.2517 277.599 79.4482 277.599 84.7292H265.512Z" fill="#635BFF"/>
<path d="M135.835 77.9071C133.352 77.9071 131.853 78.608 131.853 80.4304C131.853 82.4202 134.433 83.2955 137.634 84.3815C142.852 86.1518 149.72 88.4818 149.749 97.1128C149.749 105.477 143.05 110.29 133.305 110.29C129.276 110.29 124.872 109.496 120.515 107.627V96.5053C124.451 98.6548 129.417 100.244 133.305 100.244C135.929 100.244 137.803 99.5427 137.803 97.3932C137.803 95.1891 135.006 94.1816 131.629 92.9653C126.487 91.113 120 88.7764 120 80.9912C120 72.7201 126.325 67.7668 135.835 67.7668C139.724 67.7668 143.565 68.3743 147.454 69.9164V80.8977C143.893 78.9818 139.396 77.9071 135.835 77.9071Z" fill="#635BFF"/>
<path d="M186.947 72.0186L186.198 68.5607H176.078V109.449H187.791V81.7383C190.555 78.1402 195.24 78.7944 196.692 79.3084V68.5607C195.193 67.9999 189.711 66.9719 186.947 72.0186Z" fill="#635BFF"/>
<path d="M199.549 68.5613H211.308V109.449H199.549V68.5613Z" fill="#635BFF"/>
<path fill-rule="evenodd" clip-rule="evenodd" d="M226.58 71.4109C228.22 69.9155 231.172 67.766 235.763 67.766C243.961 67.766 251.691 75.1492 251.738 88.7007C251.738 103.514 244.102 110.243 235.716 110.243C231.593 110.243 229.11 108.514 227.424 107.299L227.377 120.523L215.664 123V68.5137H225.971L226.58 71.4109ZM227.424 97.7683C228.548 98.9834 230.188 99.9648 232.952 99.9648C237.262 99.9648 240.167 95.2914 240.167 89.029C240.167 82.9067 237.215 78.1398 232.952 78.1398C230.282 78.1398 228.595 79.0745 227.377 80.4298L227.424 97.7683Z" fill="#635BFF"/>
</g>
<defs>
<filter id="filter0_dd_1220_3496" x="0" y="0" width="408" height="216" filterUnits="userSpaceOnUse" color-interpolation-filters="sRGB">
<feFlood flood-opacity="0" result="BackgroundImageFix"/>
<feColorMatrix in="SourceAlpha" type="matrix" values="0 0 0 0 0 0 0 0 0 0 0 0 0 0 0 0 0 0 127 0" result="hardAlpha"/>
<feOffset dy="2"/>
<feGaussianBlur stdDeviation="10"/>
<feColorMatrix type="matrix" values="0 0 0 0 0.717647 0 0 0 0 0.717647 0 0 0 0 0.717647 0 0 0 0.08 0"/>
<feBlend mode="normal" in2="BackgroundImageFix" result="effect1_dropShadow_1220_3496"/>
<feColorMatrix in="SourceAlpha" type="matrix" values="0 0 0 0 0 0 0 0 0 0 0 0 0 0 0 0 0 0 127 0" result="hardAlpha"/>
<feOffset dy="20"/>
<feGaussianBlur stdDeviation="20"/>
<feColorMatrix type="matrix" values="0 0 0 0 0.717647 0 0 0 0 0.717647 0 0 0 0 0.717647 0 0 0 0.08 0"/>
<feBlend mode="normal" in2="effect1_dropShadow_1220_3496" result="effect2_dropShadow_1220_3496"/>
<feBlend mode="normal" in="SourceGraphic" in2="effect2_dropShadow_1220_3496" result="shape"/>
</filter>
</defs>
</svg>
