<svg width="408" height="216" viewBox="0 0 408 216" fill="none" xmlns="http://www.w3.org/2000/svg">
<g filter="url(#filter0_dd_1333_2915)">
<rect x="40.5" y="20.5" width="327" height="135" rx="24.5" stroke="#D6DCE5"/>
<path d="M112.794 111.036L113.661 105.532L111.73 105.487H102.513L108.919 64.8734C108.938 64.7508 109.003 64.6364 109.098 64.5553C109.192 64.4741 109.313 64.4293 109.439 64.4293H124.982C130.142 64.4293 133.702 65.503 135.562 67.6221C136.433 68.6162 136.988 69.655 137.257 70.7982C137.538 71.9978 137.544 73.431 137.268 75.1789L137.248 75.3065V76.4265L138.12 76.9203C138.854 77.3096 139.437 77.7553 139.885 78.2656C140.631 79.1156 141.113 80.1958 141.317 81.4765C141.527 82.7938 141.457 84.3611 141.113 86.1356C140.715 88.1768 140.072 89.9546 139.204 91.4093C138.405 92.7497 137.388 93.8612 136.18 94.723C135.027 95.5415 133.656 96.1629 132.107 96.5607C130.605 96.9513 128.894 97.1487 127.017 97.1487H125.807C124.942 97.1487 124.102 97.4602 123.442 98.0187C122.781 98.5886 122.343 99.367 122.209 100.219L122.118 100.714L120.587 110.415L120.518 110.771C120.499 110.884 120.468 110.94 120.422 110.978C120.38 111.013 120.321 111.036 120.262 111.036H112.794Z" fill="#253B80"/>
<path d="M138.943 75.438C138.896 75.7346 138.843 76.0378 138.784 76.3493C136.734 86.8719 129.721 90.507 120.765 90.507H116.205C115.11 90.507 114.187 91.3022 114.016 92.3825L111.02 111.385C110.909 112.094 111.456 112.734 112.172 112.734H120.26C121.218 112.734 122.031 112.038 122.182 111.093L122.261 110.682L123.784 101.019L123.882 100.49C124.031 99.5419 124.846 98.8461 125.804 98.8461H127.014C134.85 98.8461 140.984 95.6649 142.777 86.4593C143.526 82.6138 143.138 79.4029 141.156 77.1446C140.557 76.4636 139.813 75.8986 138.943 75.438Z" fill="#179BD7"/>
<path d="M136.794 74.5805C136.481 74.4893 136.158 74.4065 135.826 74.3319C135.493 74.2591 135.152 74.1944 134.801 74.1381C133.571 73.9393 132.224 73.8448 130.781 73.8448H118.599C118.298 73.8448 118.014 73.9128 117.759 74.0354C117.197 74.3054 116.779 74.8373 116.678 75.4884L114.086 91.9011L114.012 92.3799C114.183 91.2996 115.106 90.5043 116.201 90.5043H120.761C129.717 90.5043 136.73 86.8676 138.779 76.3467C138.84 76.0352 138.892 75.732 138.938 75.4354C138.42 75.1604 137.858 74.9251 137.253 74.7246C137.104 74.6749 136.95 74.6269 136.794 74.5805Z" fill="#222D65"/>
<path d="M116.684 75.4895C116.785 74.8384 117.203 74.3065 117.765 74.0381C118.022 73.9155 118.305 73.8476 118.605 73.8476H130.787C132.231 73.8476 133.578 73.942 134.807 74.1408C135.159 74.1972 135.5 74.2618 135.833 74.3347C136.164 74.4093 136.487 74.4921 136.801 74.5832C136.956 74.6296 137.11 74.6776 137.261 74.7257C137.866 74.9262 138.428 75.1631 138.946 75.4365C139.556 71.5479 138.942 68.9003 136.839 66.5028C134.521 63.8635 130.337 62.7335 124.983 62.7335H109.44C108.346 62.7335 107.414 63.5288 107.244 64.6107L100.771 105.642C100.643 106.454 101.269 107.187 102.087 107.187H111.684L116.684 75.4895Z" fill="#253B80"/>
<path fill-rule="evenodd" clip-rule="evenodd" d="M177.482 73.4591H166.101C165.322 73.4591 164.66 74.0251 164.538 74.7935L159.935 103.974C159.844 104.55 160.29 105.069 160.874 105.069H166.307C167.086 105.069 167.749 104.503 167.87 103.733L169.112 95.863C169.231 95.0922 169.895 94.527 170.672 94.527H174.275C181.772 94.527 186.099 90.8994 187.229 83.7112C187.738 80.5664 187.251 78.0954 185.778 76.3644C184.16 74.4647 181.291 73.4591 177.482 73.4591ZM178.795 84.117C178.173 88.2005 175.052 88.2005 172.035 88.2005H170.318L171.523 80.5741C171.594 80.1137 171.994 79.7741 172.46 79.7741H173.247C175.302 79.7741 177.241 79.7741 178.243 80.9453C178.84 81.6445 179.023 82.6825 178.795 84.117ZM211.502 83.9861H206.052C205.588 83.9861 205.187 84.3257 205.115 84.7869L204.874 86.3108L204.493 85.7587C203.313 84.0462 200.682 83.4741 198.056 83.4741C192.033 83.4741 186.89 88.0349 185.888 94.4331C185.367 97.624 186.107 100.676 187.918 102.804C189.579 104.761 191.955 105.576 194.783 105.576C199.635 105.576 202.326 102.456 202.326 102.456L202.083 103.971C201.992 104.55 202.437 105.069 203.018 105.069H207.928C208.708 105.069 209.367 104.503 209.49 103.733L212.436 85.0811C212.529 84.5074 212.085 83.9861 211.502 83.9861ZM203.905 94.5924C203.379 97.7057 200.908 99.7955 197.757 99.7955C196.174 99.7955 194.909 99.2881 194.097 98.3263C193.292 97.3715 192.985 96.0116 193.242 94.4977C193.733 91.4107 196.246 89.2531 199.349 89.2531C200.896 89.2531 202.155 89.7667 202.983 90.7369C203.814 91.7172 204.143 93.0847 203.905 94.5924ZM235.052 83.9854H240.529C241.296 83.9854 241.743 84.8455 241.307 85.4746L223.092 111.765C222.797 112.191 222.311 112.444 221.792 112.444H216.322C215.552 112.444 215.102 111.577 215.548 110.946L221.22 102.941L215.187 85.2397C214.979 84.6245 215.433 83.9854 216.088 83.9854H221.469C222.168 83.9854 222.785 84.4443 222.987 85.1134L226.188 95.8045L233.742 84.6791C234.038 84.2448 234.529 83.9854 235.052 83.9854Z" fill="#253B80"/>
<path fill-rule="evenodd" clip-rule="evenodd" d="M294.434 103.972L299.104 74.2573C299.176 73.7961 299.576 73.4565 300.04 73.455H305.298C305.879 73.455 306.325 73.9755 306.233 74.5515L301.627 103.731C301.507 104.501 300.845 105.067 300.065 105.067H295.369C294.788 105.067 294.342 104.548 294.434 103.972ZM258.663 73.4565H247.28C246.503 73.4565 245.841 74.0225 245.719 74.791L241.116 103.972C241.024 104.548 241.47 105.067 242.052 105.067H247.892C248.435 105.067 248.899 104.671 248.984 104.132L250.29 95.8604C250.41 95.0896 251.074 94.5244 251.851 94.5244H255.452C262.951 94.5244 267.277 90.8968 268.408 83.7086C268.918 80.5638 268.428 78.0928 266.955 76.3618C265.339 74.4622 262.472 73.4565 258.663 73.4565ZM259.976 84.1144C259.355 88.1979 256.235 88.1979 253.216 88.1979H251.5L252.707 80.5715C252.778 80.1111 253.174 79.7715 253.642 79.7715H254.429C256.483 79.7715 258.423 79.7715 259.424 80.9427C260.022 81.6419 260.204 82.6799 259.976 84.1144ZM292.68 83.9835H287.234C286.766 83.9835 286.368 84.3231 286.298 84.7844L286.057 86.3082L285.674 85.7561C284.495 84.0436 281.865 83.4715 279.239 83.4715C273.216 83.4715 268.074 88.0323 267.072 94.4305C266.553 97.6215 267.29 100.673 269.101 102.801C270.765 104.758 273.139 105.574 275.966 105.574C280.818 105.574 283.509 102.453 283.509 102.453L283.266 103.968C283.175 104.547 283.621 105.066 284.205 105.066H289.112C289.889 105.066 290.552 104.5 290.673 103.73L293.62 85.0785C293.71 84.5048 293.265 83.9835 292.68 83.9835ZM285.084 94.5899C284.561 97.7031 282.086 99.7929 278.934 99.7929C277.355 99.7929 276.087 99.2855 275.275 98.3237C274.469 97.3689 274.167 96.009 274.42 94.4952C274.914 91.4081 277.423 89.2505 280.527 89.2505C282.075 89.2505 283.333 89.7641 284.162 90.7343C284.995 91.7146 285.325 93.0821 285.084 94.5899Z" fill="#179BD7"/>
</g>
<defs>
<filter id="filter0_dd_1333_2915" x="0" y="0" width="408" height="216" filterUnits="userSpaceOnUse" color-interpolation-filters="sRGB">
<feFlood flood-opacity="0" result="BackgroundImageFix"/>
<feColorMatrix in="SourceAlpha" type="matrix" values="0 0 0 0 0 0 0 0 0 0 0 0 0 0 0 0 0 0 127 0" result="hardAlpha"/>
<feOffset dy="2"/>
<feGaussianBlur stdDeviation="10"/>
<feColorMatrix type="matrix" values="0 0 0 0 0.717647 0 0 0 0 0.717647 0 0 0 0 0.717647 0 0 0 0.08 0"/>
<feBlend mode="normal" in2="BackgroundImageFix" result="effect1_dropShadow_1333_2915"/>
<feColorMatrix in="SourceAlpha" type="matrix" values="0 0 0 0 0 0 0 0 0 0 0 0 0 0 0 0 0 0 127 0" result="hardAlpha"/>
<feOffset dy="20"/>
<feGaussianBlur stdDeviation="20"/>
<feColorMatrix type="matrix" values="0 0 0 0 0.717647 0 0 0 0 0.717647 0 0 0 0 0.717647 0 0 0 0.08 0"/>
<feBlend mode="normal" in2="effect1_dropShadow_1333_2915" result="effect2_dropShadow_1333_2915"/>
<feBlend mode="normal" in="SourceGraphic" in2="effect2_dropShadow_1333_2915" result="shape"/>
</filter>
</defs>
</svg>
